<?xml version="1.0" encoding="UTF-8" standalone="no"?>
<!-- Created with Inkscape (http://www.inkscape.org/) -->

<svg
   width="400"
   height="600"
   viewBox="0 0 105.83333 158.75"
   version="1.1"
   id="svg5"
   inkscape:version="1.2.2 (732a01da63, 2022-12-09)"
   sodipodi:docname="background.svg"
   xmlns:inkscape="http://www.inkscape.org/namespaces/inkscape"
   xmlns:sodipodi="http://sodipodi.sourceforge.net/DTD/sodipodi-0.dtd"
   xmlns="http://www.w3.org/2000/svg"
   xmlns:svg="http://www.w3.org/2000/svg">
  <sodipodi:namedview
     id="namedview7"
     pagecolor="#505050"
     bordercolor="#eeeeee"
     borderopacity="1"
     inkscape:showpageshadow="0"
     inkscape:pageopacity="0"
     inkscape:pagecheckerboard="0"
     inkscape:deskcolor="#505050"
     inkscape:document-units="mm"
     showgrid="false"
     inkscape:zoom="0.50333195"
     inkscape:cx="80.463797"
     inkscape:cy="107.28506"
     inkscape:window-width="1360"
     inkscape:window-height="745"
     inkscape:window-x="1358"
     inkscape:window-y="-8"
     inkscape:window-maximized="1"
     inkscape:current-layer="layer1" />
  <defs
     id="defs2" />
  <g
     inkscape:label="Layer 1"
     inkscape:groupmode="layer"
     id="layer1">
    <path
       style="fill:#ff0000;stroke-width:1"
       d="m -2.9736031,40.515341 c 0,0 7.805708,-11.522712 15.9831161,-13.752914 C 21.186921,24.532225 28.992629,19.51427 29.92188,15.797266 30.851131,12.080262 38.84269,6.1330561 40.143641,2.9736031 41.444592,-0.18585019 49.622,-3.5311535 49.622,-3.5311535 L -7.4340076,-15.425566 Z"
       id="path345" />
    <path
       style="fill:#f9d7b8;fill-opacity:1;stroke-width:1"
       d="m -3.6796461,102.24159 c 0,0 14.9814161,-14.718583 32.0654871,-23.392032 C 45.46991,70.176106 45.927033,57.073598 58.874336,52.303539 81.34646,44.024336 72.963463,35.754142 86.340266,25.363275 96.679602,17.331857 90.057596,18.017077 97.773446,7.6221237 107.2354,-5.1252209 124.5823,-6.5707963 124.5823,-6.5707963 L -8.9362832,-9.199115 Z"
       id="path357"
       sodipodi:nodetypes="cssssccc" />
    <path
       style="fill:#ffd0a3;fill-opacity:1;stroke-width:1"
       d="m -3.6796461,90.414159 c 0,0 11.3017698,-16.558408 19.7123891,-16.82124 C 24.443363,73.330087 26.80885,66.496458 32.59115,68.336283 38.373452,70.176106 44.944246,45.995574 59.4,42.053097 73.855751,38.11062 66.537318,19.792027 80.426548,12.615929 88.311507,8.5420353 86.077433,1.5769912 92.648227,-2.1026548 99.219023,-5.7823007 -8.9362832,-10.776106 -8.9362832,-10.776106 l 3.9424779,101.190265 z"
       id="path355"
       sodipodi:nodetypes="csssssccc" />
    <path
       style="fill:#ffca99;stroke-width:1;fill-opacity:1"
       d="M -5.7823009,79.900885 C -3.6796461,77.798228 1.839823,70.964601 19.186725,63.079645 36.533629,55.194689 28.911505,49.412389 44.155751,44.681415 59.4,39.950442 52.566371,29.7 62.29115,24.443363 72.015929,19.186725 65.445131,11.827433 72.27876,9.199115 79.112389,6.5707963 85.946016,-7.8849558 85.946016,-7.8849558 l -96.45929,-0.7884953 z"
       id="path353" />
    <path
       style="fill:#ffbf85;stroke-width:1;fill-opacity:1"
       d="M -3.1539823,66.233627 C -1.0513274,63.079645 7.8849558,52.829203 19.449557,49.412389 31.014159,45.995574 39.161947,42.57876 43.630087,34.693804 48.09823,26.80885 45.46991,22.60354 58.348673,16.295575 71.227433,9.9876106 60.188495,8.4106193 68.861947,0.78849558 77.535396,-6.8336283 -16.558407,-9.4619468 -16.558407,-9.4619468 l -1.576991,79.6380528 z"
       id="path351" />
    <path
       style="fill:#ffb775;stroke-width:1;fill-opacity:1"
       d="M -4.0887041,60.587162 C -3.7170037,59.843759 5.2038054,46.462547 13.567064,41.630441 21.930322,36.798337 23.602974,42.187992 28.992629,37.170037 34.382284,32.152082 34.196435,22.302023 39.95779,19.88597 45.719145,17.469918 49.622,5.9472059 56.126758,1.6726517 62.631512,-2.6019026 22.116172,-17.655768 22.116172,-17.655768 c 0,0 -49.622001,14.8680151 -48.878599,21.5586219 0.743401,6.6906071 22.6737229,56.6843081 22.6737229,56.6843081 z"
       id="path349" />
    <path
       style="fill:#ffae5d;stroke-width:1;fill-opacity:1"
       d="M -2.6019026,48.878601 C -1.8585019,48.321049 5.5755055,37.727588 10.22176,35.497386 14.868015,33.267184 24.903925,31.780382 30.851131,25.647326 36.798337,19.51427 30.293579,17.469918 38.099288,13.567064 45.904996,9.6642096 43.303094,4.2745543 49.436149,1.3009513 55.569206,-1.6726517 49.2503,-15.983116 49.2503,-15.983116 l -89.765641,10.9651609 z"
       id="path347" />
    <path
       style="fill:#ff8400;stroke-width:1;fill-opacity:1"
       d="M 53.092034,-8.6734511 C 51.252212,-8.1477876 33.379645,-1.839823 29.174336,4.2053097 24.969026,10.250442 24.180531,14.718584 19.186725,16.295575 14.19292,17.872566 13.404425,16.558407 9.199115,22.60354 4.9938053,28.648673 -2.6940266,26.414602 -4.2053097,28.780089 -5.716593,31.145575 -13.195363,-9.1066592 -13.195363,-9.1066592 L 39.028539,-19.88597 Z"
       id="path341" />
    <path
       style="fill:#ff5f00;stroke-width:1;fill-opacity:1"
       d="m 34.299556,-6.5707963 c 0,0 -11.696016,5.78230072 -14.587167,9.5933627 -2.89115,3.8110619 -5.388053,3.5482299 -6.43938,4.4681414 -1.051328,0.9199115 -1.708407,1.8398231 -1.971239,3.7453542 -0.262832,1.905531 -5.1909293,2.036947 -8.5420354,6.965044 -3.35110628,4.928097 -8.6734514,7.75354 -9.0019912,7.819248 C -6.5707963,26.086062 -21.026548,-2.3654867 -21.026548,-2.3654867 L 26.283185,-13.667256 Z"
       id="path339" />
    <path
       style="fill:#ff2500;stroke-width:1;fill-opacity:1"
       d="m 13.207301,-1.6426991 c 0,0 -3.088275,-0.6570796 -5.6508852,4.5995575 C 4.9938053,8.2134955 4.5338494,8.4106193 1.774115,9.9219027 -0.98561947,11.433186 -4.2710176,11.038938 -6.7679204,14.718584 -9.2648229,18.39823 -11.761725,5.1909291 -11.761725,5.1909291 L 1.5769911,-2.3654867 Z"
       id="path337" />
  </g>
</svg>
